<?xml version="1.0" standalone="no"?>
<!DOCTYPE svg PUBLIC "-//W3C//DTD SVG 20010904//EN"
 "http://www.w3.org/TR/2001/REC-SVG-20010904/DTD/svg10.dtd">
<svg version="1.0" xmlns="http://www.w3.org/2000/svg"
 width="503.000000pt" height="496.000000pt" viewBox="0 0 503.000000 496.000000"
 preserveAspectRatio="xMidYMid meet">

<g transform="translate(0.000000,496.000000) scale(0.100000,-0.100000)"
fill="#000000" stroke="red">
<path d="M2158 4704 c-131 -31 -219 -102 -408 -328 -61 -72 -125 -140 -143
-152 -17 -11 -45 -29 -60 -38 -40 -25 -58 -74 -73 -201 -18 -146 -17 -148 8
-180 12 -16 32 -69 45 -118 12 -50 29 -97 38 -107 8 -9 15 -29 15 -45 0 -61
101 -166 140 -145 19 10 60 14 60 5 0 -2 9 -28 21 -57 l21 -53 -24 23 c-14 12
-30 22 -37 22 -8 0 5 -18 29 -41 35 -34 41 -46 39 -74 -2 -19 0 -37 4 -41 4
-4 7 -27 7 -50 0 -24 5 -46 10 -49 6 -3 7 -17 4 -31 -4 -17 -2 -24 8 -24 9 0
21 -22 32 -56 22 -69 103 -165 208 -249 l76 -59 -26 -32 c-16 -19 -41 -35 -60
-39 -48 -10 -153 3 -246 32 -47 14 -108 25 -146 26 -57 1 -73 -3 -124 -32 -88
-51 -141 -128 -237 -344 -47 -106 -78 -154 -166 -249 -53 -58 -81 -114 -66
-129 8 -8 18 -7 34 5 68 47 163 -15 266 -175 56 -87 98 -212 90 -265 -3 -19
-20 -53 -37 -75 -35 -44 -34 -72 2 -67 17 2 34 23 63 74 22 39 57 97 78 128
21 31 48 82 60 114 l22 57 8 -175 c5 -96 10 -290 11 -430 2 -200 6 -265 18
-303 13 -36 14 -62 8 -115 -5 -37 -12 -147 -16 -244 l-7 -178 862 0 863 0 -7
87 c-3 49 -10 228 -15 398 -6 171 -17 378 -25 460 -19 181 -37 446 -32 451 10
10 76 -148 82 -199 7 -64 24 -87 64 -87 26 0 27 1 28 68 0 48 9 92 31 155 56
161 135 278 215 318 l39 20 24 -22 c26 -24 26 -24 43 8 15 29 15 28 -22 70
-19 21 -60 87 -91 148 -31 60 -86 149 -122 197 -36 48 -88 125 -114 170 -88
148 -93 154 -165 178 -70 23 -69 23 -273 0 -119 -14 -134 -11 -194 32 -24 17
-47 -4 -29 -26 10 -12 1 -48 -45 -188 -66 -197 -93 -243 -167 -284 -139 -76
-356 11 -396 158 -12 46 -42 260 -36 266 1 2 43 -17 93 -42 152 -77 221 -62
386 89 83 75 196 220 227 291 12 25 26 101 36 182 17 138 17 139 36 118 18
-20 18 -20 11 -1 -4 11 -8 38 -8 60 -1 22 -7 46 -13 53 -7 7 -13 22 -13 33 0
31 26 86 47 98 17 10 17 10 -3 11 -19 0 -31 -15 -48 -60 -4 -8 -4 8 -2 35 6
62 23 103 47 110 15 5 17 14 12 56 -6 48 -4 51 31 83 30 28 36 40 36 74 0 22
-10 61 -22 88 -15 35 -22 71 -23 124 -3 167 -52 249 -209 350 -74 48 -85 59
-86 84 0 15 -17 60 -37 98 -29 56 -44 74 -72 86 -20 8 -43 15 -51 14 -8 0 -33
7 -55 15 -69 26 -207 53 -270 52 -33 0 -86 -7 -117 -15z m538 -758 c10 -22 41
-67 68 -98 93 -105 118 -138 130 -171 7 -17 17 -43 23 -57 33 -79 45 -308 23
-450 -18 -110 -116 -290 -152 -278 -7 3 -31 31 -53 63 -23 32 -51 63 -62 68
-24 11 -341 -25 -439 -49 -46 -12 -76 -27 -100 -49 -31 -29 -34 -38 -34 -89 0
-31 -4 -56 -8 -56 -23 0 -136 110 -160 156 -6 11 -29 95 -52 185 -23 90 -56
198 -75 239 -30 68 -52 158 -70 294 -9 67 18 130 52 121 12 -3 51 4 85 15 114
36 164 42 225 24 58 -17 127 -13 193 11 19 7 67 23 105 35 39 12 84 33 102 46
17 13 37 24 44 24 21 0 76 48 100 87 l23 37 7 -33 c4 -18 15 -52 25 -75z m-36
-961 c9 -11 11 -38 6 -98 -11 -146 -35 -195 -106 -216 -27 -8 -44 -20 -47 -32
-7 -26 -72 -45 -102 -30 -12 7 -19 16 -16 21 7 12 -27 30 -56 30 -13 0 -37 10
-55 22 -27 19 -40 41 -70 126 -23 65 -33 107 -27 113 5 5 94 20 199 34 104 14
203 29 219 34 42 13 41 13 55 -4z"/>
<path d="M2615 3621 c-72 -20 -165 -66 -208 -102 -31 -26 -31 -27 -14 -47 25
-28 68 -16 154 41 42 29 88 51 122 58 53 11 143 8 190 -7 36 -11 18 12 -37 47
-54 34 -113 37 -207 10z"/>
<path d="M1912 3507 c-28 -8 -51 -23 -68 -45 -33 -42 -26 -49 21 -21 59 35
159 31 259 -10 97 -40 116 -31 60 29 -26 27 -52 44 -79 50 -53 13 -140 11
-193 -3z"/>
<path d="M2580 3480 c-54 -18 -100 -58 -100 -85 0 -8 12 -1 29 16 31 31 54 38
45 14 -7 -17 38 -65 61 -65 24 0 72 27 79 45 8 23 9 23 -20 17 -26 -5 -44 9
-44 34 0 21 67 26 102 8 l33 -17 -24 27 c-30 32 -80 34 -161 6z"/>
<path d="M1993 3403 c-12 -2 -33 -16 -47 -30 -29 -28 -27 -46 1 -21 10 9 27
18 39 22 18 5 20 3 16 -23 -8 -58 35 -93 90 -72 15 6 32 20 38 31 10 20 10 21
-8 16 -27 -9 -57 21 -42 39 6 8 17 12 23 10 7 -2 24 -6 39 -9 14 -3 41 -18 59
-33 l33 -28 -19 32 c-21 36 -42 49 -105 63 -46 10 -78 11 -117 3z"/>
<path d="M2724 3388 l-19 -23 23 19 c12 11 22 21 22 23 0 8 -8 2 -26 -19z"/>
<path d="M2574 2952 c-6 -4 -16 -17 -23 -29 -31 -59 -167 -85 -236 -44 -24 14
-41 18 -62 12 -26 -7 -22 -9 44 -29 75 -23 146 -28 186 -13 30 12 94 66 108
92 10 19 3 24 -17 11z"/>
<path d="M2433 2753 c-23 -3 -30 -8 -26 -19 7 -19 63 -19 63 0 0 8 6 17 13 19
14 6 -1 6 -50 0z"/>
</g>
</svg>
